# xmcd
#
# Track frame offsets: 
#        150
#        21757
#        41262
#        66108
#        81991
#        103401
#        121264
#        144464
#        161793
#        176616
#        194064
#        212733
#        230835
#
# Disc length: 3334 seconds
#
# Revision: 0
# Processed by: cddbd v1.5.2PL0 Copyright (c) Steve Scherf et al.
# Submitted via: ExactAudioCopy v1.3
#
DISCID=bf0d040d
DTITLE=The Black Sorrows - Beat Club
DYEAR=1998
DGENRE=Blues Rock
TTITLE0=New Craze
TTITLE1=Here She Comes
TTITLE2=Fool Notion
TTITLE3=98 Degrees
TTITLE4=Crazy 'Bout The Way You Move
TTITLE5=Soul Free
TTITLE6=When You Say My Name
TTITLE7=Walkin' Like A Drownin' Man
TTITLE8=Who Do You Think You Are Foolin'
TTITLE9=Poor Boy Blues
TTITLE10=That's What I Get For Lovin' You
TTITLE11=Favourite Son
TTITLE12=You Can't Wear Another Man's Hat
EXTD=
EXTT0=
EXTT1=
EXTT2=
EXTT3=
EXTT4=
EXTT5=
EXTT6=
EXTT7=
EXTT8=
EXTT9=
EXTT10=
EXTT11=
EXTT12=
PLAYORDER=
